<svg xmlns="http://www.w3.org/2000/svg" width="121.734" height="83.896" viewBox="0 0 121.734 83.896">
  <g id="Group_139" data-name="Group 139" transform="translate(-206 -60.942)">
    <g id="Group_73" data-name="Group 73" transform="translate(-2716 -442)">
      <path id="Path_263" data-name="Path 263" d="M82.149,115.3c-11.363,3.648-23.5,5.625-34.281,10.8-4.259,2.049-10.7,5.288-11.949,10.406-2.748,11.2,22.364,11.724,28.744,11.748,22.75.1,47.138,3.64,68.53-6.019,5.834-2.636,16.522-10.511,13.565-17.623-3.68-8.839-18.78-9.45-26.719-9.731-8.839-.321-17.824-.088-26.639-.386C90.908,114.419,82.6,116.621,82.149,115.3Z" transform="translate(2893.496 437.863)" fill="#f7e7da"/>
      <path id="Path_361" data-name="Path 361" d="M143.008,128.54c3.922-.233,15.461-13.613,16.385-15.686s-3.118-48.914-3.118-48.914l-21.568,5.537L134,100.624Z" transform="translate(2874.191 447.793)" fill="#dca665"/>
      <path id="Path_362" data-name="Path 362" d="M42.72,73.959s1.921,53.294,3.616,54.909,76.437,1.149,78.752,0,.233-52.836,0-54.909-44.43-8.349-44.43-8.349Z" transform="translate(2892.119 447.465)" fill="#b77f43"/>
      <path id="Path_363" data-name="Path 363" d="M62.761,53l78.679,1.157S129.9,69.875,125.056,71.482s-80.744,3-82.36,0S59.8,53,62.761,53Z" transform="translate(2892.144 449.942)" fill="#dca665"/>
      <path id="Path_364" data-name="Path 364" d="M39.582,71.482l-12.689,4.38C24.587,76.1,49.5,57.38,49.5,57.38L59.647,53Z" transform="translate(2895.258 449.942)" fill="#f4c080"/>
      <path id="Path_365" data-name="Path 365" d="M129.984,71.482c4.822-1.607,16.385-17.3,16.385-17.3L67.69,53V73.162C91.01,73.556,126.713,72.575,129.984,71.482Z" transform="translate(2887.215 449.942)" fill="#b77f43"/>
      <path id="Path_366" data-name="Path 366" d="M41.142,76s-6.927,16.61-6.429,17.534,80.977,0,82.36,0S123.5,76,123.5,76Z" transform="translate(2893.697 445.424)" fill="#f4c080"/>
      <path id="Path_367" data-name="Path 367" d="M118.47,23.711l16.385-17.3L145,15.065,133.7,36.175Z" transform="translate(2898.729 497.713)" fill="#f4c080"/>
      <path id="Path_368" data-name="Path 368" d="M59.153,129.429c-2.708.169-5.111,2.2-7.506,3.319-.876.41-.249,1.808.659,1.551a30.184,30.184,0,0,0,3.4-1.246,24.606,24.606,0,0,0,3.938-1.808C60.4,130.747,60.181,129.365,59.153,129.429Z" transform="translate(2890.448 434.93)" fill="#a9763d"/>
      <path id="Path_369" data-name="Path 369" d="M67.017,130.627c-5.1.627-10.061,4.195-14.376,6.782a1.064,1.064,0,1,0,1.069,1.84c2.138-1.069,4.291-2.1,6.429-3.062,2.459-1.093,5.191-1.808,7.465-3.214C68.6,132.339,68.327,130.459,67.017,130.627Z" transform="translate(2890.275 434.697)" fill="#a9763d"/>
      <path id="Path_370" data-name="Path 370" d="M68.977,135.625a40.558,40.558,0,0,0-4.99,2.29c-1.422.763-.169,2.877,1.254,2.154a34.986,34.986,0,0,0,4.46-2.724C70.5,136.766,70.046,135.239,68.977,135.625Z" transform="translate(2888.065 433.725)" fill="#a9763d"/>
      <path id="Path_371" data-name="Path 371" d="M78.862,66.867A28.511,28.511,0,0,0,71.8,69.551c-1.213.563-.153,2.29,1.037,1.768,2.226-.964,4.484-1.88,6.67-2.933C80.405,67.944,79.73,66.714,78.862,66.867Z" transform="translate(2886.513 447.221)" fill="#a9763d"/>
      <path id="Path_372" data-name="Path 372" d="M88.758,66.664a29.331,29.331,0,0,0-8.791,3.584.892.892,0,0,0,.683,1.607,51.558,51.558,0,0,0,8.839-3.383C90.566,67.958,89.818,66.423,88.758,66.664Z" transform="translate(2884.879 447.263)" fill="#a9763d"/>
      <path id="Path_373" data-name="Path 373" d="M94.631,69.9l-1.229.145a.988.988,0,1,0,.3,1.945l1.181-.466a.852.852,0,0,0,.611-.8.8.8,0,0,0-.86-.82Z" transform="translate(2882.349 446.623)" fill="#a9763d"/>
      <path id="Path_374" data-name="Path 374" d="M152.136,126.136c-1.366.426-2,1.776-2.563,2.981-.354.747.707,1.4,1.117.659a9.433,9.433,0,0,1,.932-1.487c.362-.458.8-.86,1.141-1.326S152.57,126.023,152.136,126.136Z" transform="translate(2871.146 435.58)" fill="#b77f43"/>
      <path id="Path_375" data-name="Path 375" d="M155.836,126.247a33.4,33.4,0,0,0-4.677,5.673c-.362.522.49,1.181.884.683,1.471-1.9,3.166-3.616,4.637-5.513a.6.6,0,1,0-.844-.844Z" transform="translate(2870.838 435.589)" fill="#b77f43"/>
      <path id="Path_376" data-name="Path 376" d="M48.436,78.747a6.107,6.107,0,0,0-1.43.522,4.484,4.484,0,0,1-1.43.571.924.924,0,0,0,0,1.84,6.257,6.257,0,0,0,3.488-1.454.8.8,0,0,0-.627-1.479Z" transform="translate(2891.723 444.895)" fill="#dca665"/>
      <path id="Path_377" data-name="Path 377" d="M51.688,79.413a58.541,58.541,0,0,0-8.406,5.625c-.546.426.177,1.366.739.956,2.684-1.969,5.673-3.5,8.325-5.5a.651.651,0,0,0-.659-1.077Z" transform="translate(2892.047 444.76)" fill="#dca665"/>
      <path id="Path_378" data-name="Path 378" d="M154.574,70.886a8.156,8.156,0,0,0-3.214,1.607.852.852,0,0,0,0,1.2.868.868,0,0,0,1.2,0c.8-.651,1.824-.988,2.644-1.663C155.772,71.553,155.177,70.75,154.574,70.886Z" transform="translate(2870.829 446.432)" fill="#dca665"/>
      <path id="Path_379" data-name="Path 379" d="M155.355,74.311l-1.262.49c-1.133.442-.354,2.089.619,1.479l1.173-.723C156.52,75.162,156.1,74.054,155.355,74.311Z" transform="translate(2870.354 445.764)" fill="#dca665"/>
      <path id="Path_380" data-name="Path 380" d="M116.771,92.134a21.745,21.745,0,0,0-7.329-.8,1.138,1.138,0,0,0,0,2.274c2.363,0,4.709.394,7.072.45a.98.98,0,0,0,.257-1.921Z" transform="translate(2879.23 442.421)" fill="#f5daaf"/>
      <path id="Path_381" data-name="Path 381" d="M128.609,92.668a17.02,17.02,0,0,0-2.636-.169.8.8,0,0,0,0,1.607,16.072,16.072,0,0,0,2.636-.169.667.667,0,0,0,0-1.27Z" transform="translate(2875.925 442.184)" fill="#f5daaf"/>
    </g>
    <path id="Path_3413" data-name="Path 3413" d="M429.814,286.484Zm3.968,8.227c1.113,0,1.839-.339,2.033-1.065l.145-.484c.145-.581.387-1.355-1.113-1.355h-7.114l-1.549,5.807a2.105,2.105,0,0,0,2.081,2.9l1.549-5.807h3.968ZM436.2,286h-4.065a4.033,4.033,0,0,0-3.63,2.9h7.162c2.855,0,3.968,1.161,3.194,4.162-.823,3-2.807,4.549-5.517,4.549h-1.4c-.145.484-.435,1.6-.774,2.9h1.355c4.355,0,7.985-2.855,8.759-5.807,0,0,.436-1.645.436-1.694,1.065-4.162-.968-7.017-5.517-7.017" transform="translate(-171.077 -182.11)" fill="#dfdfdf"/>
  </g>
</svg>
