<svg xmlns="http://www.w3.org/2000/svg" width="41" height="41" viewBox="0 0 41 41">
  <g id="Group_9842" data-name="Group 9842" transform="translate(-209 -479)">
    <circle id="Ellipse_485" data-name="Ellipse 485" cx="20.5" cy="20.5" r="20.5" transform="translate(209 479)" fill="#c4c1c1" opacity="0.15"/>
    <path id="Icon_ionic-md-call" data-name="Icon ionic-md-call" d="M16.647,13.431a8.386,8.386,0,0,1-2.536-.393.668.668,0,0,0-.714.179l-1.572,1.572a10.745,10.745,0,0,1-4.716-4.716L8.68,8.5a.745.745,0,0,0,.179-.714A7.771,7.771,0,0,1,8.43,5.215.717.717,0,0,0,7.715,4.5h-2.5a.717.717,0,0,0-.715.715A12.137,12.137,0,0,0,16.647,17.361a.717.717,0,0,0,.715-.715v-2.5A.717.717,0,0,0,16.647,13.431Z" transform="translate(218.5 488.5)" fill="none" stroke="#e2741c" stroke-width="1"/>
  </g>
</svg>
