<svg xmlns="http://www.w3.org/2000/svg" xmlns:xlink="http://www.w3.org/1999/xlink" width="25.385" height="22" viewBox="0 0 25.385 22">
  <defs>
    <linearGradient id="linear-gradient" x1="0.5" x2="0.5" y2="1" gradientUnits="objectBoundingBox">
      <stop offset="0" stop-color="#3a3790"/>
      <stop offset="1" stop-color="#696d78"/>
    </linearGradient>
  </defs>
  <g id="Group_9829" data-name="Group 9829" transform="translate(0 -0.441)">
    <g id="Group_17" data-name="Group 17" transform="translate(0 0.441)">
      <circle id="Ellipse_9" data-name="Ellipse 9" cx="11" cy="11" r="11" transform="translate(0 0)" opacity="0.1" fill="url(#linear-gradient)"/>
    </g>
    <g id="cargo-truck" transform="translate(9.149 4.878)">
      <path id="Path_16" data-name="Path 16" d="M9.471,4.507V13.64a.511.511,0,0,1-.507.507H5.7a2.481,2.481,0,0,0,.054-.507,2.537,2.537,0,1,0-5.074,0,2.481,2.481,0,0,0,.054.507H.507A.511.511,0,0,1,0,13.64V4.507A.511.511,0,0,1,.507,4H8.963A.511.511,0,0,1,9.471,4.507Z" transform="translate(0 -4)" fill="url(#linear-gradient)"/>
      <path id="Path_17" data-name="Path 17" d="M21.088,10.213v4.4a.511.511,0,0,1-.507.507h-.392a2.481,2.481,0,0,0,.054-.507,2.537,2.537,0,1,0-5.074,0,1.966,1.966,0,0,0,.041.406A.488.488,0,0,1,15,14.61v-7.1A.511.511,0,0,1,15.507,7h2.368A3.216,3.216,0,0,1,21.088,10.213Z" transform="translate(-4.853 -4.971)" fill="url(#linear-gradient)"/>
      <path id="Path_18" data-name="Path 18" d="M18.11,19.221a1.86,1.86,0,1,1,1.86-1.86A1.862,1.862,0,0,1,18.11,19.221Z" transform="translate(-5.257 -7.72)" fill="url(#linear-gradient)"/>
      <path id="Path_19" data-name="Path 19" d="M3.86,19.221a1.86,1.86,0,1,1,1.86-1.86A1.862,1.862,0,0,1,3.86,19.221Z" transform="translate(-0.647 -7.72)" fill="url(#linear-gradient)"/>
    </g>
  </g>
</svg>
