<svg xmlns="http://www.w3.org/2000/svg" width="9.092" height="11.34" viewBox="0 0 9.092 11.34">
  <g id="left-arrow" transform="translate(0.25 11.09) rotate(-90)">
    <path id="Path_3433" data-name="Path 3433" d="M.225,0A.225.225,0,0,1,.45.225a5.186,5.186,0,0,0,5.18,5.18h4.412L7.724,3.088a.225.225,0,0,1,.318-.318l2.7,2.7a.225.225,0,0,1,0,.319h0l-2.7,2.7a.225.225,0,1,1-.324-.313l.006-.006,2.319-2.319H5.631A5.637,5.637,0,0,1,0,.225.225.225,0,0,1,.225,0Z" transform="translate(0 0)" fill="#00823b" stroke="#00823b" stroke-width="0.5"/>
    <path id="Path_3434" data-name="Path 3434" d="M.225,5.853a.225.225,0,0,0,.159-.066l2.7-2.7a.225.225,0,0,0,0-.318L.385.063A.225.225,0,0,0,.066.382L2.61,2.925.066,5.469a.225.225,0,0,0,.159.385Z" transform="translate(7.658 2.706)" fill="#00823b" stroke="#00823b" stroke-width="0.5"/>
    <path id="Path_3435" data-name="Path 3435" d="M5.631,5.856h4.955a.225.225,0,0,0,0-.451H5.631A5.186,5.186,0,0,1,.45.225a.225.225,0,1,0-.45,0A5.637,5.637,0,0,0,5.631,5.856Z" transform="translate(0 0)" fill="#00823b" stroke="#00823b" stroke-width="0.5"/>
  </g>
</svg>
