<svg xmlns="http://www.w3.org/2000/svg" width="14.79" height="10.564" viewBox="0 0 14.79 10.564">
  <g id="Icon_ionic-md-cash" data-name="Icon ionic-md-cash" transform="translate(-2.25 -6.75)">
    <path id="Path_382" data-name="Path 382" d="M2.25,6.75V15.2H17.04V6.75Zm5.3,7.4H4.894a1.586,1.586,0,0,0-1.588-1.588V9.919A2.115,2.115,0,0,0,5.419,7.806H7.549a4.929,4.929,0,0,0-1.073,3.169A4.929,4.929,0,0,0,7.549,14.145Zm8.435-1.588A1.6,1.6,0,0,0,14.4,14.145H11.741a4.929,4.929,0,0,0,1.073-3.169,4.929,4.929,0,0,0-1.073-3.169h2.129a2.115,2.115,0,0,0,2.113,2.113Z" fill="#2ccc91"/>
    <path id="Path_383" data-name="Path 383" d="M2.25,27H17.04v1.056H2.25Z" transform="translate(0 -10.742)" fill="#2ccc91"/>
  </g>
</svg>
