<svg xmlns="http://www.w3.org/2000/svg" xmlns:xlink="http://www.w3.org/1999/xlink" width="16" height="16.012" viewBox="0 0 16 16.012">
  <defs>
    <linearGradient id="linear-gradient" x1="0.5" x2="0.5" y2="1" gradientUnits="objectBoundingBox">
      <stop offset="0" stop-color="#3a3790"/>
      <stop offset="1" stop-color="#696d78"/>
    </linearGradient>
  </defs>
  <path id="euro" d="M16.2,2.757A2.754,2.754,0,0,0,11.567.75,8,8,0,0,0,1.183,11.86a2.249,2.249,0,0,0,3.159,3.159A8,8,0,0,0,15.452,4.635,2.739,2.739,0,0,0,16.2,2.757ZM3.41,14.417h0a1.251,1.251,0,0,1-1.624-1.624h0A1.25,1.25,0,1,1,3.41,14.417Zm6.813-3.828A2.807,2.807,0,0,1,5.479,9.507H4.946a.5.5,0,0,1,0-1h.28a4.179,4.179,0,0,1,0-1h-.28a.5.5,0,0,1,0-1H5.48a2.807,2.807,0,0,1,4.731-1.1.5.5,0,0,1-.726.687,1.759,1.759,0,0,0-2.891.408H7.7a.5.5,0,0,1,0,1H6.235a3.232,3.232,0,0,0,0,1H7.7a.5.5,0,0,1,0,1h-1.1a1.761,1.761,0,0,0,2.9.4.5.5,0,1,1,.73.683Zm3.223-6.082a1.75,1.75,0,1,1,1.75-1.75A1.752,1.752,0,0,1,13.446,4.507Z" transform="translate(-0.196 0)" fill="url(#linear-gradient)"/>
</svg>
