<svg xmlns="http://www.w3.org/2000/svg" width="16.758" height="16.758" viewBox="0 0 16.758 16.758">
  <path id="path" d="M15.158,9.14A6.8,6.8,0,0,1,9.14,15.158V16a.72.72,0,0,1-.762.762A.72.72,0,0,1,7.617,16v-.838A6.665,6.665,0,0,1,1.6,9.14H.762A.72.72,0,0,1,0,8.379a.72.72,0,0,1,.762-.762H1.6A6.665,6.665,0,0,1,7.617,1.6V.762A.72.72,0,0,1,8.379,0,.72.72,0,0,1,9.14.762V1.6a6.8,6.8,0,0,1,6.017,6.017H16a.72.72,0,0,1,.762.762A.72.72,0,0,1,16,9.14Zm-6.779,4.57A5.332,5.332,0,1,0,3.047,8.379a5.3,5.3,0,0,0,5.332,5.332Zm0-2.285a3.047,3.047,0,1,1,3.047-3.047,3.056,3.056,0,0,1-3.047,3.047Zm0-1.523A1.523,1.523,0,1,0,6.855,8.379,1.528,1.528,0,0,0,8.379,9.9Z" fill="#e2741c"/>
</svg>
