<svg xmlns="http://www.w3.org/2000/svg" width="79.6" height="29.211" viewBox="0 0 79.6 29.211">
  <g id="Group_9826" data-name="Group 9826" transform="translate(5980 7382)">
    <path id="Path_397" data-name="Path 397" d="M152,93.859s4.515-2.252,6.315-10.4l3.964,7.51s-3.356,6.349-4.786,6.491S152,93.859,152,93.859Z" transform="translate(-6104.307 -7450.254)" fill="#a2988d"/>
    <path id="Path_398" data-name="Path 398" d="M0,1.588s4.879.049,9.428,8.576S17.86,29.208,23.821,29.208h9.292A22.039,22.039,0,0,1,22.5,18.216C18.616,9.877,15.191.5,9.807.048A26.518,26.518,0,0,0,0,1.588Z" transform="translate(-5980 -7381.997)" fill="#ea7c27"/>
    <path id="Path_399" data-name="Path 399" d="M279.54,93.859s4.515-2.252,6.315-10.4l3.972,7.51s-3.363,6.349-4.784,6.491S279.54,93.859,279.54,93.859Z" transform="translate(-6208.611 -7450.254)" fill="#a2988d"/>
    <path id="Path_400" data-name="Path 400" d="M127.56,1.588s4.879.049,9.426,8.576,8.434,19.044,14.4,19.044h9.292a22.029,22.029,0,0,1-10.618-10.991C146.178,9.877,142.749.5,137.365.048A26.5,26.5,0,0,0,127.56,1.588Z" transform="translate(-6084.32 -7381.997)" fill="#ea7c27"/>
    <path id="Path_401" data-name="Path 401" d="M255.11,1.588s4.879.049,9.428,8.576,8.432,19.044,14.4,19.044h9.292a22.075,22.075,0,0,1-10.62-10.991C273.717,9.877,270.3.5,264.917.048A26.518,26.518,0,0,0,255.11,1.588Z" transform="translate(-6188.631 -7381.997)" fill="#ea7c27"/>
    <circle id="Ellipse_22" data-name="Ellipse 22" cx="3.564" cy="3.564" r="3.564" transform="translate(-5932.441 -7370.568)" fill="#ea7c27"/>
    <circle id="Ellipse_23" data-name="Ellipse 23" cx="3.564" cy="3.564" r="3.564" transform="translate(-5956.085 -7370.568)" fill="#ea7c27"/>
  </g>
</svg>
