<svg xmlns="http://www.w3.org/2000/svg" width="9.092" height="11.34" viewBox="0 0 9.092 11.34">
  <g id="left-arrow" transform="translate(8.813 0.25) rotate(90)">
    <path id="Path_3433" data-name="Path 3433" d="M.237,61.819a.225.225,0,0,0,.225-.225,5.186,5.186,0,0,1,5.18-5.18h4.412L7.735,58.731a.225.225,0,0,0,.318.318l2.7-2.7a.225.225,0,0,0,0-.319h0l-2.7-2.7a.225.225,0,1,0-.324.313l.006.006,2.319,2.319H5.642A5.637,5.637,0,0,0,.011,61.593.225.225,0,0,0,.237,61.819Z" transform="translate(-0.011 -53.256)" fill="#e24949" stroke="#e24949" stroke-width="0.5"/>
    <path id="Path_3434" data-name="Path 3434" d="M.225,181.4a.225.225,0,0,1,.159.066l2.7,2.7a.225.225,0,0,1,0,.318l-2.7,2.7a.225.225,0,0,1-.318-.318l2.543-2.543L.066,181.782a.225.225,0,0,1,.159-.385Z" transform="translate(7.658 -181.394)" fill="#e24949" stroke="#e24949" stroke-width="0.5"/>
    <path id="Path_3435" data-name="Path 3435" d="M5.639,53.255h4.955a.225.225,0,0,1,0,.451H5.639a5.186,5.186,0,0,0-5.18,5.18.225.225,0,1,1-.45,0A5.637,5.637,0,0,1,5.639,53.255Z" transform="translate(-0.008 -50.549)" fill="#e24949" stroke="#e24949" stroke-width="0.5"/>
  </g>
</svg>
