<svg xmlns="http://www.w3.org/2000/svg" width="218.867" height="128.51" viewBox="0 0 218.867 128.51">
  <g id="Layer_2" data-name="Layer 2" transform="translate(0 0.003)">
    <g id="Layer_1" data-name="Layer 1" transform="translate(0 -0.003)">
      <path id="Path_397" data-name="Path 397" d="M152,112.054s12.413-6.192,17.363-28.594l10.9,20.649s-9.227,17.458-13.16,17.849S152,112.054,152,112.054Z" transform="translate(-75.857 -41.65)" fill="#a2988d"/>
      <path id="Path_398" data-name="Path 398" d="M0,4.372s13.415.135,25.924,23.579S49.107,80.314,65.5,80.314H91.046s-18.49-7.294-29.175-30.222S41.769,1.376,26.966.139C14.182-.928,0,4.372,0,4.372Z" transform="translate(0 0.003)" fill="#ea7c27"/>
      <path id="Path_399" data-name="Path 399" d="M279.54,112.054s12.413-6.192,17.363-28.594l10.921,20.649s-9.247,17.458-13.155,17.849S279.54,112.054,279.54,112.054Z" transform="translate(-139.507 -41.65)" fill="#a2988d"/>
      <path id="Path_400" data-name="Path 400" d="M127.56,4.372s13.415.135,25.919,23.579,23.189,52.364,39.6,52.364h25.548s-18.515-7.294-29.195-30.222S169.324,1.376,154.521.139C141.737-.928,127.56,4.372,127.56,4.372Z" transform="translate(-63.66 0.003)" fill="#ea7c27"/>
      <path id="Path_401" data-name="Path 401" d="M255.11,4.372s13.415.135,25.924,23.579,23.184,52.364,39.6,52.364h25.548s-18.49-7.294-29.2-30.222S296.879,1.376,282.076.139C269.292-.928,255.11,4.372,255.11,4.372Z" transform="translate(-127.315 0.003)" fill="#ea7c27"/>
      <circle id="Ellipse_22" data-name="Ellipse 22" cx="9.798" cy="9.798" r="9.798" transform="translate(130.766 31.431)" fill="#ea7c27"/>
      <circle id="Ellipse_23" data-name="Ellipse 23" cx="9.798" cy="9.798" r="9.798" transform="translate(65.754 31.431)" fill="#ea7c27"/>
      <path id="Path_402" data-name="Path 402" d="M24.1,209.742a8.691,8.691,0,0,1-.626,3.321,8.015,8.015,0,0,1-1.743,2.655,9.016,9.016,0,0,1-3.3,2.109,14.067,14.067,0,0,1-4.8.7H10.052v10.049H6.47V201.6h7.309a17.533,17.533,0,0,1,4.113.411A9.322,9.322,0,0,1,20.9,203.28a7.369,7.369,0,0,1,2.369,2.57A8.055,8.055,0,0,1,24.1,209.742Zm-3.727.09a5.631,5.631,0,0,0-.5-2.425,4.1,4.1,0,0,0-1.5-1.683,6.142,6.142,0,0,0-2-.807,13.653,13.653,0,0,0-2.815-.24h-3.5v10.77h3.006a13.127,13.127,0,0,0,3.532-.391,4.964,4.964,0,0,0,2.224-1.237,5.165,5.165,0,0,0,1.2-1.828,6.187,6.187,0,0,0,.356-2.179Z" transform="translate(-3.229 -100.605)" fill="#010101"/>
      <path id="Path_403" data-name="Path 403" d="M64.57,224.6a11.35,11.35,0,0,1-2.535,7.8,8.618,8.618,0,0,1-6.788,2.86,8.628,8.628,0,0,1-6.813-2.86,11.306,11.306,0,0,1-2.5-7.8,11.469,11.469,0,0,1,2.5-7.81,8.576,8.576,0,0,1,6.813-2.87,8.6,8.6,0,0,1,6.788,2.87A11.38,11.38,0,0,1,64.57,224.6Zm-3.507,0q0-3.922-1.538-5.836a5.743,5.743,0,0,0-8.551,0q-1.533,1.909-1.528,5.836a9.215,9.215,0,0,0,1.538,5.766,5.606,5.606,0,0,0,8.506.02,9.084,9.084,0,0,0,1.568-5.786Z" transform="translate(-22.922 -106.757)" fill="#010101"/>
      <path id="Path_404" data-name="Path 404" d="M106.745,228.952a5.51,5.51,0,0,1-2.289,4.544,9.987,9.987,0,0,1-6.257,1.773,15.026,15.026,0,0,1-4.118-.531,18.542,18.542,0,0,1-3.141-1.162v-3.817h.185a13.61,13.61,0,0,0,3.582,1.929,11.118,11.118,0,0,0,3.782.716,7.134,7.134,0,0,0,3.507-.726,2.435,2.435,0,0,0,1.267-2.279,2.319,2.319,0,0,0-.686-1.813,6.285,6.285,0,0,0-2.645-1.047c-.5-.11-1.112-.235-1.889-.381s-1.5-.3-2.129-.471a7.06,7.06,0,0,1-3.772-2.074,5.15,5.15,0,0,1-1.117-3.356,5.551,5.551,0,0,1,.5-2.354,5.712,5.712,0,0,1,1.568-1.974,7.561,7.561,0,0,1,2.58-1.348,11.547,11.547,0,0,1,3.507-.5,15.741,15.741,0,0,1,3.667.441,13.906,13.906,0,0,1,3.086,1.077v3.642h-.18a12.212,12.212,0,0,0-3.171-1.623,10.886,10.886,0,0,0-3.657-.661,6.392,6.392,0,0,0-3.146.716,2.5,2.5,0,0,0-.5,4.008,6.011,6.011,0,0,0,2.46,1.027c.626.145,1.333.291,2.109.436s1.428.281,1.944.4a7.184,7.184,0,0,1,3.657,1.864A4.9,4.9,0,0,1,106.745,228.952Z" transform="translate(-45.384 -106.836)" fill="#010101"/>
      <path id="Path_405" data-name="Path 405" d="M140.5,229.274a17.317,17.317,0,0,1-2.089.416,14.091,14.091,0,0,1-2,.165,6.248,6.248,0,0,1-4.7-1.663q-1.608-1.663-1.613-5.34V212.116h-2.3v-2.88h2.3V203.45H133.5v5.786h7.013v2.86H133.5v9.217a24.9,24.9,0,0,0,.07,2.5,4.087,4.087,0,0,0,.5,1.678,2.454,2.454,0,0,0,1.1,1.057,5.085,5.085,0,0,0,2.124.336,6.554,6.554,0,0,0,1.738-.245,13.637,13.637,0,0,0,1.3-.406h.18Z" transform="translate(-63.775 -101.532)" fill="#010101"/>
      <path id="Path_406" data-name="Path 406" d="M175.617,234.757h-3.371V232.6c-.3.205-.706.5-1.222.857a8.249,8.249,0,0,1-1.5.877,10.091,10.091,0,0,1-1.954.7,10.673,10.673,0,0,1-2.59.281,6.477,6.477,0,0,1-4.634-1.813,6.091,6.091,0,0,1-1.9-4.614,6.412,6.412,0,0,1,1-3.722,6.547,6.547,0,0,1,2.815-2.234,15.191,15.191,0,0,1,4.433-1.1q2.545-.305,5.55-.436v-.526a4.048,4.048,0,0,0-.406-1.919,2.94,2.94,0,0,0-1.167-1.192,4.733,4.733,0,0,0-1.738-.561,13.861,13.861,0,0,0-5.1.205,23.389,23.389,0,0,0-3.4,1h-.205V214.95c.661-.18,1.623-.381,2.875-.6a21.958,21.958,0,0,1,3.712-.326,17.225,17.225,0,0,1,3.717.351,7.173,7.173,0,0,1,2.745,1.207,5.355,5.355,0,0,1,1.738,2.154,7.98,7.98,0,0,1,.6,3.276Zm-3.371-4.979v-5.631q-1.553.09-3.662.27a18.808,18.808,0,0,0-3.341.5,5.51,5.51,0,0,0-2.369,1.3,3.722,3.722,0,0,0,.145,5.009,4.859,4.859,0,0,0,3.2.877,7.575,7.575,0,0,0,3.276-.7A14.653,14.653,0,0,0,172.245,229.778Z" transform="translate(-79.07 -106.81)" fill="#010101"/>
      <path id="Path_407" data-name="Path 407" d="M256.165,228.556h-6.948V216.678H238.953v11.877H232V201.6h6.948v9.869h10.264V201.6h6.948Z" transform="translate(-115.781 -100.608)" fill="#010101"/>
      <path id="Path_408" data-name="Path 408" d="M311.8,225.562H296.887a4.684,4.684,0,0,0,1.818,3.657,8.15,8.15,0,0,0,4.934,1.267,11.152,11.152,0,0,0,4.008-.741,12.568,12.568,0,0,0,3.061-1.593h.726v5.23a24.242,24.242,0,0,1-4.163,1.282,21.788,21.788,0,0,1-4.328.4q-6.116,0-9.378-2.75t-3.256-7.84A10.545,10.545,0,0,1,293.4,216.5q3.086-2.966,8.461-2.94,4.959,0,7.459,2.5t2.5,7.214Zm-6.477-3.817a4.633,4.633,0,0,0-1-3.081,3.887,3.887,0,0,0-3.006-1.032,4.789,4.789,0,0,0-3.1.977,4.186,4.186,0,0,0-1.353,3.136Z" transform="translate(-144.881 -106.577)" fill="#010101"/>
      <path id="Path_409" data-name="Path 409" d="M348.927,227.348H342.39V199.18h6.537Z" transform="translate(-170.872 -99.401)" fill="#010101"/>
      <path id="Path_410" data-name="Path 410" d="M374.218,204.124h-6.9V199.18h6.9Zm-.18,23.224h-6.512V207.02h6.512Z" transform="translate(-183.314 -99.401)" fill="#010101"/>
      <path id="Path_411" data-name="Path 411" d="M411.635,235.158h-7.6l-4.343-6.086-4.459,6.086H387.78l8.015-10.179-7.9-10.149H395.5l4.273,5.966,4.293-5.966h7.474l-7.91,10.019Z" transform="translate(-193.525 -107.211)" fill="#010101"/>
    </g>
  </g>
</svg>
