<svg xmlns="http://www.w3.org/2000/svg" width="196" height="117" viewBox="0 0 196 117">
  <g id="Group_10121" data-name="Group 10121" transform="translate(4144 6252)">
    <g id="Group_7432" data-name="Group 7432" transform="translate(-4144 -6214)">
      <g id="Path_33243" data-name="Path 33243" fill="#2cb2a6">
        <path d="M 178.0729064941406 77.5 L 17.66011428833008 77.5 C 13.24048233032227 77.5 9.105034828186035 76.3438720703125 6.015587329864502 74.24460601806641 C 3.103666305541992 72.26597595214844 1.500008463859558 69.69313049316406 1.500008463859558 67 L 1.500008463859558 12 C 1.500008463859558 9.306868553161621 3.103666305541992 6.734026432037354 6.015587329864502 4.75539493560791 C 9.105034828186035 2.656131505966187 13.24048233032227 1.5 17.66011428833008 1.5 L 178.0729064941406 1.5 C 182.4925537109375 1.5 186.6280059814453 2.656131505966187 189.7174530029297 4.75539493560791 C 192.6293487548828 6.734026432037354 194.2330017089844 9.306868553161621 194.2330017089844 12 L 194.2330017089844 67 C 194.2330017089844 69.69313049316406 192.6293487548828 72.26597595214844 189.7174530029297 74.24460601806641 C 186.6280059814453 76.3438720703125 182.4925537109375 77.5 178.0729064941406 77.5 Z" stroke="none"/>
        <path d="M 17.66012573242188 3 C 15.556396484375 3 13.52243041992188 3.277999877929688 11.61466979980469 3.826309204101563 C 9.8175048828125 4.342803955078125 8.217315673828125 5.072830200195313 6.858612060546875 5.996086120605469 C 5.41754150390625 6.97528076171875 3.000015258789063 9.057357788085938 3.000015258789063 12 L 3.000015258789063 67 C 3.000015258789063 69.94264221191406 5.41754150390625 72.02471923828125 6.858612060546875 73.00391387939453 C 8.217315673828125 73.92716979980469 9.8175048828125 74.65719604492188 11.61466979980469 75.17369079589844 C 13.52243041992188 75.72200012207031 15.556396484375 76 17.66012573242188 76 L 178.0728912353516 76 C 180.1766204833984 76 182.2105865478516 75.72200012207031 184.1183471679688 75.17369079589844 C 185.9155120849609 74.65719604492188 187.5157012939453 73.92716979980469 188.8743896484375 73.00391387939453 C 190.3154754638672 72.02471923828125 192.7330017089844 69.94264221191406 192.7330017089844 67 L 192.7330017089844 12 C 192.7330017089844 9.057357788085938 190.3154754638672 6.97528076171875 188.8743896484375 5.996086120605469 C 187.5157012939453 5.072830200195313 185.9155120849609 4.342803955078125 184.1183471679688 3.826309204101563 C 182.2105865478516 3.277999877929688 180.1766204833984 3 178.0728912353516 3 L 17.66012573242188 3 M 17.66012573242188 0 L 178.0728912353516 0 C 187.8263092041016 0 195.7330017089844 5.372581481933594 195.7330017089844 12 L 195.7330017089844 67 C 195.7330017089844 73.62741851806641 187.8263092041016 79 178.0728912353516 79 L 17.66012573242188 79 C 7.906707763671875 79 1.52587890625e-05 73.62741851806641 1.52587890625e-05 67 L 1.52587890625e-05 12 C 1.52587890625e-05 5.372581481933594 7.906707763671875 0 17.66012573242188 0 Z" stroke="none" fill="#2bafa4"/>
      </g>
      <text id="waiting" transform="translate(78 73)" fill="#fff" font-size="9" font-family="Quicksand-Bold, Quicksand" font-weight="700"><tspan x="0" y="0">Waiting</tspan></text>
    </g>
    <g id="Group_7434" data-name="Group 7434" transform="translate(-4144 -6252)">
      <g id="Group_7411" data-name="Group 7411">
        <g id="Rectangle_16" data-name="Rectangle 16" fill="#fff" stroke="#2bb1a5" stroke-width="1">
          <rect width="196" height="99" rx="12" stroke="none"/>
          <rect x="0.5" y="0.5" width="195" height="98" rx="11.5" fill="none"/>
        </g>
      </g>
    </g>
  </g>
</svg>
