<svg xmlns="http://www.w3.org/2000/svg" width="41" height="41" viewBox="0 0 41 41">
  <g id="Group_9841" data-name="Group 9841" transform="translate(-125 -479)">
    <circle id="Ellipse_484" data-name="Ellipse 484" cx="20.5" cy="20.5" r="20.5" transform="translate(125 479)" fill="#c4c1c1" opacity="0.15"/>
    <path id="Icon_awesome-whatsapp" data-name="Icon awesome-whatsapp" d="M13.387,4.538a7.8,7.8,0,0,0-12.28,9.416L0,18l4.137-1.086a7.779,7.779,0,0,0,3.729.949h0a7.878,7.878,0,0,0,7.876-7.8,7.833,7.833,0,0,0-2.358-5.518ZM7.869,16.544a6.474,6.474,0,0,1-3.3-.9L4.33,15.5l-2.453.643.654-2.393L2.376,13.5a6.5,6.5,0,1,1,12.052-3.448,6.558,6.558,0,0,1-6.558,6.488Zm3.557-4.857c-.193-.1-1.153-.569-1.332-.633s-.309-.1-.439.1-.5.633-.619.766-.228.148-.422.049a5.307,5.307,0,0,1-2.654-2.32c-.2-.344.2-.32.573-1.065a.361.361,0,0,0-.018-.341c-.049-.1-.439-1.058-.6-1.448s-.32-.327-.439-.334-.243-.007-.373-.007a.722.722,0,0,0-.52.243A2.191,2.191,0,0,0,3.9,8.323,3.819,3.819,0,0,0,4.7,10.341a8.712,8.712,0,0,0,3.332,2.945,3.815,3.815,0,0,0,2.341.489,2,2,0,0,0,1.314-.928,1.631,1.631,0,0,0,.112-.928C11.749,11.831,11.619,11.782,11.426,11.687Z" transform="translate(137.713 489.418)" fill="#e2741c"/>
  </g>
</svg>
